<svg width="30" height="30" viewBox="0 0 30 30" fill="none" xmlns="http://www.w3.org/2000/svg">
<path d="M21.2895 0H8.7105C3.89972 0 0 3.89972 0 8.7105V21.2895C0 26.1003 3.89972 30 8.7105 30H21.2895C26.1003 30 30 26.1003 30 21.2895V8.7105C30 3.89972 26.1003 0 21.2895 0Z" fill="#747BA7"/>
<path d="M22.239 20.4678H7.75939C7.73176 20.4678 7.70893 20.445 7.70893 20.4174V10.9532L14.9898 16.3362L22.2894 11.1002V20.4174C22.2894 20.445 22.267 20.4678 22.239 20.4678ZM20.7689 9.53234L15.009 13.6639L9.42012 9.53234H20.7689ZM22.239 7.37223H7.75939C6.54038 7.37223 5.54883 8.36378 5.54883 9.5828V20.4174C5.54883 21.6364 6.54038 22.6279 7.75939 22.6279H22.239C23.458 22.6279 24.4496 21.6364 24.4496 20.4174V9.5828C24.4496 8.36378 23.458 7.37223 22.239 7.37223Z" fill="white"/>
</svg>
