<svg width="1518" height="697" viewBox="0 0 1518 697" fill="none" xmlns="http://www.w3.org/2000/svg">
<mask id="mask0_232_2166" style="mask-type:alpha" maskUnits="userSpaceOnUse" x="0" y="0" width="1518" height="697">
<rect width="1518" height="697" fill="#D9D9D9"/>
</mask>
<g mask="url(#mask0_232_2166)">
<path d="M1318.81 237.209C1318.81 286.803 1278.61 327.005 1229.02 327.005C1179.42 327.005 1139.22 286.803 1139.22 237.209C1139.22 187.617 1179.42 147.415 1229.02 147.415C1278.61 147.415 1318.81 187.617 1318.81 237.209Z" fill="#DB8763" fill-opacity="0.8"/>
<path d="M1635.14 525.559C1635.14 592.381 1580.97 646.552 1514.15 646.552C1447.32 646.552 1393.15 592.381 1393.15 525.559C1393.15 458.735 1447.32 404.563 1514.15 404.563C1580.97 404.563 1635.14 458.735 1635.14 525.559Z" fill="#D9D9D9"/>
<path d="M1313.33 27.3053C1312.69 27.3053 1312.18 26.7893 1312.18 26.1533C1312.18 25.5159 1312.69 25 1313.33 25C1313.96 25 1314.47 25.5159 1314.47 26.1533C1314.47 26.7893 1313.96 27.3053 1313.33 27.3053Z" fill="#D9D9D9"/>
<path d="M1313.33 36.532C1312.69 36.532 1312.18 36.016 1312.18 35.3787C1312.18 34.7413 1312.69 34.2253 1313.33 34.2253C1313.96 34.2253 1314.47 34.7413 1314.47 35.3787C1314.47 36.016 1313.96 36.532 1313.33 36.532Z" fill="#D9D9D9"/>
<path d="M1313.33 45.7573C1312.69 45.7573 1312.18 45.2413 1312.18 44.604C1312.18 43.968 1312.69 43.4507 1313.33 43.4507C1313.96 43.4507 1314.47 43.968 1314.47 44.604C1314.47 45.2413 1313.96 45.7573 1313.33 45.7573Z" fill="#D9D9D9"/>
<path d="M1313.33 54.9827C1312.69 54.9827 1312.18 54.4666 1312.18 53.8293C1312.18 53.1933 1312.69 52.676 1313.33 52.676C1313.96 52.676 1314.47 53.1933 1314.47 53.8293C1314.47 54.4666 1313.96 54.9827 1313.33 54.9827Z" fill="#D9D9D9"/>
<path d="M1313.33 64.208C1312.69 64.208 1312.18 63.692 1312.18 63.056C1312.18 62.4173 1312.69 61.9013 1313.33 61.9013C1313.96 61.9013 1314.47 62.4173 1314.47 63.056C1314.47 63.692 1313.96 64.208 1313.33 64.208Z" fill="#D9D9D9"/>
<path d="M1313.33 73.4333C1312.69 73.4333 1312.18 72.9174 1312.18 72.28C1312.18 71.644 1312.69 71.128 1313.33 71.128C1313.96 71.128 1314.47 71.644 1314.47 72.28C1314.47 72.9174 1313.96 73.4333 1313.33 73.4333Z" fill="#D9D9D9"/>
<path d="M1313.33 82.6599C1312.69 82.6599 1312.18 82.1439 1312.18 81.5066C1312.18 80.8693 1312.69 80.3533 1313.33 80.3533C1313.96 80.3533 1314.47 80.8693 1314.47 81.5066C1314.47 82.1439 1313.96 82.6599 1313.33 82.6599Z" fill="#D9D9D9"/>
<path d="M1313.33 91.884C1312.69 91.884 1312.18 91.368 1312.18 90.732C1312.18 90.0947 1312.69 89.5787 1313.33 89.5787C1313.96 89.5787 1314.47 90.0947 1314.47 90.732C1314.47 91.368 1313.96 91.884 1313.33 91.884Z" fill="#D9D9D9"/>
<path d="M1313.33 101.111C1312.69 101.111 1312.18 100.595 1312.18 99.9573C1312.18 99.32 1312.69 98.804 1313.33 98.804C1313.96 98.804 1314.47 99.32 1314.47 99.9573C1314.47 100.595 1313.96 101.111 1313.33 101.111Z" fill="#D9D9D9"/>
<path d="M1313.33 110.336C1312.69 110.336 1312.18 109.82 1312.18 109.183C1312.18 108.545 1312.69 108.029 1313.33 108.029C1313.96 108.029 1314.47 108.545 1314.47 109.183C1314.47 109.82 1313.96 110.336 1313.33 110.336Z" fill="#D9D9D9"/>
<path d="M1313.33 119.561C1312.69 119.561 1312.18 119.045 1312.18 118.408C1312.18 117.772 1312.69 117.256 1313.33 117.256C1313.96 117.256 1314.47 117.772 1314.47 118.408C1314.47 119.045 1313.96 119.561 1313.33 119.561Z" fill="#D9D9D9"/>
<path d="M1313.33 128.787C1312.69 128.787 1312.18 128.271 1312.18 127.635C1312.18 126.996 1312.69 126.48 1313.33 126.48C1313.96 126.48 1314.47 126.996 1314.47 127.635C1314.47 128.271 1313.96 128.787 1313.33 128.787Z" fill="#D9D9D9"/>
<path d="M1313.33 138.012C1312.69 138.012 1312.18 137.496 1312.18 136.86C1312.18 136.223 1312.69 135.707 1313.33 135.707C1313.96 135.707 1314.47 136.223 1314.47 136.86C1314.47 137.496 1313.96 138.012 1313.33 138.012Z" fill="#D9D9D9"/>
<path d="M1313.33 147.239C1312.69 147.239 1312.18 146.723 1312.18 146.084C1312.18 145.448 1312.69 144.932 1313.33 144.932C1313.96 144.932 1314.47 145.448 1314.47 146.084C1314.47 146.723 1313.96 147.239 1313.33 147.239Z" fill="#D9D9D9"/>
<path d="M1313.33 156.464C1312.69 156.464 1312.18 155.948 1312.18 155.311C1312.18 154.675 1312.69 154.157 1313.33 154.157C1313.96 154.157 1314.47 154.675 1314.47 155.311C1314.47 155.948 1313.96 156.464 1313.33 156.464Z" fill="#D9D9D9"/>
<path d="M1313.33 165.689C1312.69 165.689 1312.18 165.173 1312.18 164.536C1312.18 163.899 1312.69 163.383 1313.33 163.383C1313.96 163.383 1314.47 163.899 1314.47 164.536C1314.47 165.173 1313.96 165.689 1313.33 165.689Z" fill="#D9D9D9"/>
<path d="M1313.21 174.912C1312.57 174.887 1312.09 174.363 1312.12 173.74C1312.15 173.116 1312.69 172.611 1313.32 172.608C1313.96 172.607 1314.45 173.132 1314.41 173.781C1314.38 174.431 1313.84 174.937 1313.21 174.912Z" fill="#D9D9D9"/>
<path d="M1312.24 184.075C1311.62 183.959 1311.19 183.367 1311.28 182.751C1311.38 182.135 1311.96 181.707 1312.59 181.795C1313.22 181.883 1313.64 182.476 1313.54 183.119C1313.45 183.761 1312.86 184.189 1312.24 184.075Z" fill="#D9D9D9"/>
<path d="M1309.95 192.997C1309.35 192.793 1309.04 192.155 1309.26 191.569C1309.44 190.976 1310.04 190.624 1310.65 190.804C1311.25 190.979 1311.64 191.641 1311.44 192.26C1311.22 192.871 1310.55 193.2 1309.95 192.997Z" fill="#D9D9D9"/>
<path d="M1306.38 201.493C1305.82 201.207 1305.58 200.519 1305.85 199.957C1306.12 199.396 1306.81 199.155 1307.39 199.417C1307.96 199.68 1308.2 200.368 1307.92 200.953C1307.64 201.539 1306.95 201.781 1306.38 201.493Z" fill="#D9D9D9"/>
<path d="M1301.68 209.416C1301.16 209.047 1301.06 208.363 1301.4 207.841C1301.73 207.309 1302.42 207.155 1302.96 207.497C1303.49 207.839 1303.65 208.567 1303.31 209.121C1302.95 209.664 1302.19 209.776 1301.68 209.416Z" fill="#D9D9D9"/>
<path d="M1295.86 216.56C1295.4 216.127 1295.37 215.401 1295.79 214.94C1296.21 214.479 1296.93 214.44 1297.41 214.855C1297.89 215.268 1297.93 215.993 1297.49 216.475C1297.05 216.956 1296.32 216.995 1295.86 216.56Z" fill="#D9D9D9"/>
<path d="M1289.14 222.863C1288.73 222.356 1288.85 221.695 1289.31 221.263C1289.77 220.843 1290.48 220.889 1290.89 221.367C1291.31 221.844 1291.26 222.585 1290.78 223.023C1290.3 223.471 1289.53 223.344 1289.14 222.863Z" fill="#D9D9D9"/>
<path d="M1281.56 228.095C1281.23 227.549 1281.4 226.844 1281.94 226.52C1282.47 226.196 1283.18 226.364 1283.53 226.895C1283.87 227.425 1283.7 228.132 1283.14 228.469C1282.59 228.808 1281.88 228.64 1281.56 228.095Z" fill="#D9D9D9"/>
<path d="M1273.35 232.277C1273.1 231.692 1273.39 231.06 1273.94 230.768C1274.5 230.497 1275.18 230.743 1275.44 231.317C1275.71 231.892 1275.45 232.588 1274.86 232.869C1274.28 233.172 1273.59 232.864 1273.35 232.277Z" fill="#D9D9D9"/>
<path d="M1264.59 235.141C1264.43 234.528 1264.8 233.903 1265.4 233.747C1266 233.591 1266.64 233.956 1266.82 234.564C1267 235.171 1266.64 235.795 1266.01 235.959C1265.38 236.121 1264.74 235.755 1264.59 235.141Z" fill="#D9D9D9"/>
<path d="M1255.53 236.839C1255.46 236.208 1255.91 235.62 1256.53 235.525C1257.14 235.429 1257.72 235.861 1257.81 236.488C1257.9 237.115 1257.45 237.701 1256.81 237.801C1256.17 237.899 1255.59 237.468 1255.53 236.839Z" fill="#D9D9D9"/>
<path d="M1246.31 237.209C1246.31 236.576 1246.83 236.063 1247.47 236.063C1248.11 236.063 1248.62 236.576 1248.62 237.209C1248.62 237.843 1248.11 238.356 1247.47 238.356C1246.83 238.356 1246.31 237.843 1246.31 237.209Z" fill="#D9D9D9"/>
<path d="M1237.09 237.209C1237.09 236.576 1237.61 236.063 1238.24 236.063C1238.88 236.063 1239.4 236.576 1239.4 237.209C1239.4 237.843 1238.88 238.356 1238.24 238.356C1237.61 238.356 1237.09 237.843 1237.09 237.209Z" fill="#D9D9D9"/>
<path d="M1227.87 237.209C1227.87 236.576 1228.38 236.063 1229.02 236.063C1229.66 236.063 1230.17 236.576 1230.17 237.209C1230.17 237.843 1229.66 238.356 1229.02 238.356C1228.38 238.356 1227.87 237.843 1227.87 237.209Z" fill="#D9D9D9"/>
<path d="M1218.64 237.209C1218.64 236.576 1219.15 236.063 1219.79 236.063C1220.43 236.063 1220.95 236.576 1220.95 237.209C1220.95 237.843 1220.43 238.356 1219.79 238.356C1219.15 238.356 1218.64 237.843 1218.64 237.209Z" fill="#D9D9D9"/>
<path d="M1209.41 237.209C1209.41 236.576 1209.93 236.063 1210.57 236.063C1211.2 236.063 1211.72 236.576 1211.72 237.209C1211.72 237.843 1211.2 238.356 1210.57 238.356C1209.93 238.356 1209.41 237.843 1209.41 237.209Z" fill="#D9D9D9"/>
<path d="M1200.23 236.488C1200.32 235.861 1200.89 235.429 1201.51 235.525C1202.12 235.62 1202.57 236.208 1202.51 236.839C1202.44 237.468 1201.87 237.899 1201.23 237.801C1200.58 237.701 1200.14 237.115 1200.23 236.488Z" fill="#D9D9D9"/>
<path d="M1191.21 234.564C1191.39 233.956 1192.03 233.591 1192.63 233.747C1193.24 233.903 1193.6 234.528 1193.45 235.141C1193.29 235.755 1192.66 236.121 1192.03 235.959C1191.4 235.795 1191.03 235.171 1191.21 234.564Z" fill="#D9D9D9"/>
<path d="M1182.59 231.317C1182.86 230.743 1183.53 230.497 1184.09 230.768C1184.65 231.06 1184.93 231.692 1184.69 232.277C1184.45 232.864 1183.75 233.172 1183.17 232.869C1182.59 232.588 1182.33 231.892 1182.59 231.317Z" fill="#D9D9D9"/>
<path d="M1174.51 226.895C1174.86 226.364 1175.57 226.196 1176.1 226.52C1176.63 226.844 1176.8 227.549 1176.48 228.095C1176.16 228.64 1175.45 228.808 1174.89 228.469C1174.34 228.132 1174.17 227.425 1174.51 226.895Z" fill="#D9D9D9"/>
<path d="M1167.14 221.367C1167.56 220.889 1168.27 220.843 1168.73 221.263C1169.18 221.695 1169.3 222.356 1168.89 222.863C1168.51 223.344 1167.73 223.471 1167.26 223.023C1166.78 222.585 1166.72 221.844 1167.14 221.367Z" fill="#D9D9D9"/>
<path d="M1160.62 214.855C1161.1 214.44 1161.83 214.479 1162.25 214.94C1162.67 215.401 1162.63 216.127 1162.17 216.56C1161.71 216.995 1160.98 216.956 1160.55 216.475C1160.11 215.993 1160.14 215.268 1160.62 214.855Z" fill="#D9D9D9"/>
<path d="M1155.08 207.497C1155.61 207.155 1156.31 207.309 1156.63 207.841C1156.97 208.363 1156.88 209.047 1156.35 209.416C1155.84 209.776 1155.08 209.664 1154.73 209.121C1154.39 208.567 1154.54 207.839 1155.08 207.497Z" fill="#D9D9D9"/>
<path d="M1150.65 199.417C1151.22 199.155 1151.91 199.396 1152.18 199.957C1152.45 200.519 1152.22 201.207 1151.65 201.493C1151.09 201.781 1150.4 201.539 1150.12 200.953C1149.83 200.368 1150.07 199.68 1150.65 199.417Z" fill="#D9D9D9"/>
<path d="M1147.38 190.804C1148 190.624 1148.59 190.976 1148.78 191.569C1149 192.155 1148.68 192.793 1148.08 192.997C1147.48 193.2 1146.82 192.871 1146.59 192.26C1146.4 191.641 1146.78 190.979 1147.38 190.804Z" fill="#D9D9D9"/>
<path d="M1145.45 181.795C1146.07 181.707 1146.66 182.135 1146.75 182.751C1146.85 183.367 1146.42 183.959 1145.8 184.075C1145.17 184.189 1144.59 183.761 1144.49 183.119C1144.39 182.476 1144.82 181.883 1145.45 181.795Z" fill="#D9D9D9"/>
<path d="M1144.71 172.608C1145.34 172.611 1145.88 173.116 1145.92 173.74C1145.95 174.363 1145.46 174.887 1144.83 174.912C1144.19 174.937 1143.65 174.431 1143.62 173.781C1143.59 173.132 1144.08 172.607 1144.71 172.608Z" fill="#D9D9D9"/>
<path d="M1144.71 163.383C1145.34 163.383 1145.86 163.899 1145.86 164.536C1145.86 165.173 1145.34 165.689 1144.71 165.689C1144.08 165.689 1143.56 165.173 1143.56 164.536C1143.56 163.899 1144.08 163.383 1144.71 163.383Z" fill="#D9D9D9"/>
<path d="M1144.71 154.157C1145.34 154.157 1145.86 154.675 1145.86 155.311C1145.86 155.948 1145.34 156.464 1144.71 156.464C1144.08 156.464 1143.56 155.948 1143.56 155.311C1143.56 154.675 1144.08 154.157 1144.71 154.157Z" fill="#D9D9D9"/>
<path d="M1144.71 144.932C1145.34 144.932 1145.86 145.448 1145.86 146.084C1145.86 146.723 1145.34 147.239 1144.71 147.239C1144.08 147.239 1143.56 146.723 1143.56 146.084C1143.56 145.448 1144.08 144.932 1144.71 144.932Z" fill="#D9D9D9"/>
<path d="M1144.71 135.707C1145.34 135.707 1145.86 136.223 1145.86 136.86C1145.86 137.496 1145.34 138.012 1144.71 138.012C1144.08 138.012 1143.56 137.496 1143.56 136.86C1143.56 136.223 1144.08 135.707 1144.71 135.707Z" fill="#D9D9D9"/>
<path d="M1144.71 126.48C1145.34 126.48 1145.86 126.996 1145.86 127.635C1145.86 128.271 1145.34 128.787 1144.71 128.787C1144.08 128.787 1143.56 128.271 1143.56 127.635C1143.56 126.996 1144.08 126.48 1144.71 126.48Z" fill="#D9D9D9"/>
<path d="M1144.71 117.256C1145.34 117.256 1145.86 117.772 1145.86 118.408C1145.86 119.045 1145.34 119.561 1144.71 119.561C1144.08 119.561 1143.56 119.045 1143.56 118.408C1143.56 117.772 1144.08 117.256 1144.71 117.256Z" fill="#D9D9D9"/>
<path d="M1144.71 108.029C1145.34 108.029 1145.86 108.545 1145.86 109.183C1145.86 109.82 1145.34 110.336 1144.71 110.336C1144.08 110.336 1143.56 109.82 1143.56 109.183C1143.56 108.545 1144.08 108.029 1144.71 108.029Z" fill="#D9D9D9"/>
<path d="M1144.71 98.804C1145.34 98.804 1145.86 99.32 1145.86 99.9573C1145.86 100.595 1145.34 101.111 1144.71 101.111C1144.08 101.111 1143.56 100.595 1143.56 99.9573C1143.56 99.32 1144.08 98.804 1144.71 98.804Z" fill="#D9D9D9"/>
<path d="M1144.71 89.5787C1145.34 89.5787 1145.86 90.0947 1145.86 90.732C1145.86 91.368 1145.34 91.884 1144.71 91.884C1144.08 91.884 1143.56 91.368 1143.56 90.732C1143.56 90.0947 1144.08 89.5787 1144.71 89.5787Z" fill="#D9D9D9"/>
<path d="M1144.71 80.3533C1145.34 80.3533 1145.86 80.8693 1145.86 81.5066C1145.86 82.1439 1145.34 82.6599 1144.71 82.6599C1144.08 82.6599 1143.56 82.1439 1143.56 81.5066C1143.56 80.8693 1144.08 80.3533 1144.71 80.3533Z" fill="#D9D9D9"/>
<path d="M1144.71 71.128C1145.34 71.128 1145.86 71.644 1145.86 72.28C1145.86 72.9174 1145.34 73.4333 1144.71 73.4333C1144.08 73.4333 1143.56 72.9174 1143.56 72.28C1143.56 71.644 1144.08 71.128 1144.71 71.128Z" fill="#D9D9D9"/>
<path d="M1144.71 61.9013C1145.34 61.9013 1145.86 62.4173 1145.86 63.056C1145.86 63.692 1145.34 64.208 1144.71 64.208C1144.08 64.208 1143.56 63.692 1143.56 63.056C1143.56 62.4173 1144.08 61.9013 1144.71 61.9013Z" fill="#D9D9D9"/>
<path d="M1144.71 52.676C1145.34 52.676 1145.86 53.1933 1145.86 53.8293C1145.86 54.4666 1145.34 54.9827 1144.71 54.9827C1144.08 54.9827 1143.56 54.4666 1143.56 53.8293C1143.56 53.1933 1144.08 52.676 1144.71 52.676Z" fill="#D9D9D9"/>
<path d="M1144.71 43.4507C1145.34 43.4507 1145.86 43.968 1145.86 44.604C1145.86 45.2413 1145.34 45.7573 1144.71 45.7573C1144.08 45.7573 1143.56 45.2413 1143.56 44.604C1143.56 43.968 1144.08 43.4507 1144.71 43.4507Z" fill="#D9D9D9"/>
<path d="M1144.71 34.2253C1145.34 34.2253 1145.86 34.7413 1145.86 35.3787C1145.86 36.016 1145.34 36.532 1144.71 36.532C1144.08 36.532 1143.56 36.016 1143.56 35.3787C1143.56 34.7413 1144.08 34.2253 1144.71 34.2253Z" fill="#D9D9D9"/>
<path d="M1144.71 25C1145.34 25 1145.86 25.5159 1145.86 26.1533C1145.86 26.7893 1145.34 27.3053 1144.71 27.3053C1144.08 27.3053 1143.56 26.7893 1143.56 26.1533C1143.56 25.5159 1144.08 25 1144.71 25Z" fill="#D9D9D9"/>
<path d="M1234.97 566.589C1234.97 567.978 1233.84 569.107 1232.45 569.107C1231.06 569.107 1229.93 567.978 1229.93 566.589C1229.93 565.197 1231.06 564.07 1232.45 564.07C1233.84 564.07 1234.97 565.197 1234.97 566.589Z" fill="#24332E"/>
<path d="M1267.71 566.589C1267.71 567.978 1266.59 569.107 1265.19 569.107C1263.8 569.107 1262.68 567.978 1262.68 566.589C1262.68 565.197 1263.8 564.07 1265.19 564.07C1266.59 564.07 1267.71 565.197 1267.71 566.589Z" fill="#24332E"/>
<path d="M1234.97 463.524C1234.97 464.915 1233.84 466.043 1232.45 466.043C1231.06 466.043 1229.93 464.915 1229.93 463.524C1229.93 462.132 1231.06 461.005 1232.45 461.005C1233.84 461.005 1234.97 462.132 1234.97 463.524Z" fill="#D9D9D9"/>
<path d="M1267.71 463.524C1267.71 464.915 1266.59 466.043 1265.19 466.043C1263.8 466.043 1262.68 464.915 1262.68 463.524C1262.68 462.132 1263.8 461.005 1265.19 461.005C1266.59 461.005 1267.71 462.132 1267.71 463.524Z" fill="#D9D9D9"/>
<path d="M1300.46 463.524C1300.46 464.915 1299.33 466.043 1297.94 466.043C1296.55 466.043 1295.42 464.915 1295.42 463.524C1295.42 462.132 1296.55 461.005 1297.94 461.005C1299.33 461.005 1300.46 462.132 1300.46 463.524Z" fill="#D9D9D9"/>
<path d="M1333.21 463.524C1333.21 464.915 1332.08 466.043 1330.69 466.043C1329.3 466.043 1328.17 464.915 1328.17 463.524C1328.17 462.132 1329.3 461.005 1330.69 461.005C1332.08 461.005 1333.21 462.132 1333.21 463.524Z" fill="#D9D9D9"/>
<path d="M1234.97 497.879C1234.97 499.269 1233.84 500.397 1232.45 500.397C1231.06 500.397 1229.93 499.269 1229.93 497.879C1229.93 496.487 1231.06 495.36 1232.45 495.36C1233.84 495.36 1234.97 496.487 1234.97 497.879Z" fill="#D9D9D9"/>
<path d="M1267.71 497.879C1267.71 499.269 1266.59 500.397 1265.19 500.397C1263.8 500.397 1262.68 499.269 1262.68 497.879C1262.68 496.487 1263.8 495.36 1265.19 495.36C1266.59 495.36 1267.71 496.487 1267.71 497.879Z" fill="#D9D9D9"/>
<path d="M1300.46 497.879C1300.46 499.269 1299.33 500.397 1297.94 500.397C1296.55 500.397 1295.42 499.269 1295.42 497.879C1295.42 496.487 1296.55 495.36 1297.94 495.36C1299.33 495.36 1300.46 496.487 1300.46 497.879Z" fill="#D9D9D9"/>
<path d="M1333.21 497.879C1333.21 499.269 1332.08 500.397 1330.69 500.397C1329.3 500.397 1328.17 499.269 1328.17 497.879C1328.17 496.487 1329.3 495.36 1330.69 495.36C1332.08 495.36 1333.21 496.487 1333.21 497.879Z" fill="#D9D9D9"/>
<path d="M1234.97 532.233C1234.97 533.625 1233.84 534.753 1232.45 534.753C1231.06 534.753 1229.93 533.625 1229.93 532.233C1229.93 530.843 1231.06 529.715 1232.45 529.715C1233.84 529.715 1234.97 530.843 1234.97 532.233Z" fill="#D9D9D9"/>
<path d="M1267.71 532.233C1267.71 533.625 1266.59 534.753 1265.19 534.753C1263.8 534.753 1262.68 533.625 1262.68 532.233C1262.68 530.843 1263.8 529.715 1265.19 529.715C1266.59 529.715 1267.71 530.843 1267.71 532.233Z" fill="#D9D9D9"/>
<path d="M1300.46 532.233C1300.46 533.625 1299.33 534.753 1297.94 534.753C1296.55 534.753 1295.42 533.625 1295.42 532.233C1295.42 530.843 1296.55 529.715 1297.94 529.715C1299.33 529.715 1300.46 530.843 1300.46 532.233Z" fill="#D9D9D9"/>
<path d="M1333.21 532.233C1333.21 533.625 1332.08 534.753 1330.69 534.753C1329.3 534.753 1328.17 533.625 1328.17 532.233C1328.17 530.843 1329.3 529.715 1330.69 529.715C1332.08 529.715 1333.21 530.843 1333.21 532.233Z" fill="#D9D9D9"/>
<path d="M1300.46 566.589C1300.46 567.978 1299.33 569.107 1297.94 569.107C1296.55 569.107 1295.42 567.978 1295.42 566.589C1295.42 565.197 1296.55 564.07 1297.94 564.07C1299.33 564.07 1300.46 565.197 1300.46 566.589Z" fill="#D9D9D9"/>
<path d="M1333.21 566.589C1333.21 567.978 1332.08 569.107 1330.69 569.107C1329.3 569.107 1328.17 567.978 1328.17 566.589C1328.17 565.197 1329.3 564.07 1330.69 564.07C1332.08 564.07 1333.21 565.197 1333.21 566.589Z" fill="#D9D9D9"/>
<path d="M1380.96 151.103L1372.97 156.135L1364.98 161.168V141.037L1372.97 146.069L1380.96 151.103Z" fill="#D9D9D9"/>
<path d="M1407.56 151.103L1399.57 156.135L1391.58 161.168V141.037L1399.57 146.069L1407.56 151.103Z" fill="#D9D9D9"/>
<path d="M1434.17 151.103L1426.18 156.135L1418.19 161.168V141.037L1426.18 146.069L1434.17 151.103Z" fill="#D9D9D9"/>
<path d="M1460.77 151.103L1452.78 156.135L1444.79 161.168V141.037L1452.78 146.069L1460.77 151.103Z" fill="#D9D9D9"/>
<path d="M1280.96 714.031H1254.3V601.005C1254.3 584.435 1240.82 570.953 1224.25 570.953C1207.68 570.953 1194.2 584.435 1194.2 601.005V714.031H1167.53V601.005C1167.53 569.73 1192.97 544.287 1224.25 544.287C1255.52 544.287 1280.96 569.73 1280.96 601.005V714.031Z" fill="#B4C0D5"/>
<path d="M1234.4 73.5733C1234.4 76.3773 1232.13 78.6493 1229.33 78.6493C1226.52 78.6493 1224.25 76.3773 1224.25 73.5733C1224.25 70.7693 1226.52 68.4959 1229.33 68.4959C1232.13 68.4959 1234.4 70.7693 1234.4 73.5733Z" stroke="#D9D9D9" stroke-width="1.18634" stroke-miterlimit="10"/>
<path d="M181.002 517C230.707 517 271.002 557.294 271.002 607C271.002 656.705 230.707 697 181.002 697C131.296 697 91.0009 656.705 91.0009 607C91.0009 557.294 131.296 517 181.002 517Z" fill="#D9D9D9"/>
<path d="M73.7029 473.075C96.9682 471.695 116.95 489.437 118.331 512.702C119.711 535.969 101.97 555.949 78.7042 557.33C55.4376 558.711 35.4563 540.97 34.0763 517.704C32.6949 494.437 50.4376 474.457 73.7029 473.075Z" fill="#E09D80"/>
<path d="M249.28 655.855C250.671 655.855 251.799 656.983 251.799 658.374C251.799 659.765 250.671 660.893 249.28 660.893C247.888 660.893 246.76 659.765 246.76 658.374C246.76 656.983 247.888 655.855 249.28 655.855Z" fill="#D9D9D9"/>
<path d="M248.964 623.111C250.354 623.111 251.482 624.239 251.482 625.63C251.482 627.021 250.354 628.149 248.964 628.149C247.572 628.149 246.444 627.021 246.444 625.63C246.444 624.239 247.572 623.111 248.964 623.111Z" fill="#D9D9D9"/>
<path d="M283.634 655.522C285.024 655.522 286.152 656.65 286.152 658.041C286.152 659.432 285.024 660.56 283.634 660.56C282.242 660.56 281.115 659.432 281.115 658.041C281.115 656.65 282.242 655.522 283.634 655.522Z" fill="#D9D9D9"/>
<path d="M283.317 622.778C284.708 622.778 285.836 623.906 285.836 625.297C285.836 626.688 284.708 627.816 283.317 627.816C281.925 627.816 280.799 626.688 280.799 625.297C280.799 623.906 281.925 622.778 283.317 622.778Z" fill="#D9D9D9"/>
<path d="M317.987 655.189C319.378 655.189 320.506 656.317 320.506 657.708C320.506 659.099 319.378 660.227 317.987 660.227C316.595 660.227 315.469 659.099 315.469 657.708C315.469 656.317 316.595 655.189 317.987 655.189Z" fill="#D9D9D9"/>
<path d="M317.669 622.445C319.06 622.445 320.188 623.572 320.188 624.964C320.188 626.355 319.06 627.482 317.669 627.482C316.277 627.482 315.15 626.355 315.15 624.964C315.15 623.572 316.277 622.445 317.669 622.445Z" fill="#D9D9D9"/>
<path d="M17.1786 362.694C18.5692 362.694 19.6973 363.822 19.6973 365.213C19.6973 366.605 18.5692 367.733 17.1786 367.733C15.7879 367.733 14.66 366.605 14.66 365.213C14.66 363.822 15.7879 362.694 17.1786 362.694Z" fill="#D9D9D9"/>
<path d="M16.8602 329.95C18.2509 329.95 19.3789 331.078 19.3789 332.468C19.3789 333.86 18.2509 334.988 16.8602 334.988C15.4696 334.988 14.3416 333.86 14.3416 332.468C14.3416 331.078 15.4696 329.95 16.8602 329.95Z" fill="#D9D9D9"/>
<path d="M16.5438 297.207C17.9345 297.207 19.0625 298.335 19.0625 299.725C19.0625 301.116 17.9345 302.244 16.5438 302.244C15.1531 302.244 14.0252 301.116 14.0252 299.725C14.0252 298.335 15.1531 297.207 16.5438 297.207Z" fill="#D9D9D9"/>
<path d="M16.2255 264.462C17.6161 264.462 18.7441 265.589 18.7441 266.981C18.7441 268.371 17.6161 269.499 16.2255 269.499C14.8348 269.499 13.7068 268.371 13.7068 266.981C13.7068 265.589 14.8348 264.462 16.2255 264.462Z" fill="#D9D9D9"/>
<path d="M24.7852 452.123L18.0932 458.816L11.4012 452.123L18.0932 445.431L24.7852 452.123Z" fill="#D9D9D9"/>
<path d="M49.1719 451.886L42.4799 458.58L35.7879 451.886L42.4799 445.194L49.1719 451.886Z" fill="#D9D9D9"/>
<path d="M73.5586 451.65L66.8666 458.343L60.1746 451.65L66.8666 444.958L73.5586 451.65Z" fill="#D9D9D9"/>
<path d="M85.077 411C87.881 411 90.1543 413.273 90.1543 416.077C90.1543 418.881 87.881 421.155 85.077 421.155C82.273 421.155 80.001 418.881 80.001 416.077C80.001 413.273 82.273 411 85.077 411Z" stroke="#D9D9D9" stroke-width="1.18634" stroke-miterlimit="10"/>
</g>
</svg>
