<svg width="166" height="254" viewBox="0 0 166 254" fill="none" xmlns="http://www.w3.org/2000/svg">
<path d="M67.5686 2.5243C67.5686 3.91497 66.4405 5.04297 65.0499 5.04297C63.6592 5.04297 62.5312 3.91497 62.5312 2.5243C62.5312 1.1323 63.6592 0.00563145 65.0499 0.00563145C66.4405 0.00563145 67.5686 1.1323 67.5686 2.5243Z" fill="#E5E5E5"/>
<path d="M100.311 2.5243C100.311 3.91497 99.1841 5.04297 97.7921 5.04297C96.4015 5.04297 95.2734 3.91497 95.2734 2.5243C95.2734 1.1323 96.4015 0.00563145 97.7921 0.00563145C99.1841 0.00563145 100.311 1.1323 100.311 2.5243Z" fill="#E5E5E5"/>
<path d="M133.061 2.5243C133.061 3.91497 131.934 5.04297 130.542 5.04297C129.151 5.04297 128.023 3.91497 128.023 2.5243C128.023 1.1323 129.151 0.00563145 130.542 0.00563145C131.934 0.00563145 133.061 1.1323 133.061 2.5243Z" fill="#E5E5E5"/>
<path d="M165.803 2.5243C165.803 3.91497 164.676 5.04297 163.284 5.04297C161.894 5.04297 160.766 3.91497 160.766 2.5243C160.766 1.1323 161.894 0.00563145 163.284 0.00563145C164.676 0.00563145 165.803 1.1323 165.803 2.5243Z" fill="#E5E5E5"/>
<path d="M67.5686 36.8788C67.5686 38.2695 66.4405 39.3975 65.0499 39.3975C63.6592 39.3975 62.5312 38.2695 62.5312 36.8788C62.5312 35.4868 63.6592 34.3601 65.0499 34.3601C66.4405 34.3601 67.5686 35.4868 67.5686 36.8788Z" fill="#E5E5E5"/>
<path d="M100.311 36.8788C100.311 38.2695 99.1841 39.3975 97.7921 39.3975C96.4015 39.3975 95.2734 38.2695 95.2734 36.8788C95.2734 35.4868 96.4015 34.3601 97.7921 34.3601C99.1841 34.3601 100.311 35.4868 100.311 36.8788Z" fill="#E5E5E5"/>
<path d="M133.061 36.8788C133.061 38.2695 131.934 39.3975 130.542 39.3975C129.151 39.3975 128.023 38.2695 128.023 36.8788C128.023 35.4868 129.151 34.3601 130.542 34.3601C131.934 34.3601 133.061 35.4868 133.061 36.8788Z" fill="#E5E5E5"/>
<path d="M165.803 36.8788C165.803 38.2695 164.676 39.3975 163.284 39.3975C161.894 39.3975 160.766 38.2695 160.766 36.8788C160.766 35.4868 161.894 34.3601 163.284 34.3601C164.676 34.3601 165.803 35.4868 165.803 36.8788Z" fill="#E5E5E5"/>
<path d="M67.5686 71.2339C67.5686 72.6259 66.4405 73.7539 65.0499 73.7539C63.6592 73.7539 62.5312 72.6259 62.5312 71.2339C62.5312 69.8432 63.6592 68.7152 65.0499 68.7152C66.4405 68.7152 67.5686 69.8432 67.5686 71.2339Z" fill="#E5E5E5"/>
<path d="M100.311 71.2339C100.311 72.6259 99.1841 73.7539 97.7921 73.7539C96.4015 73.7539 95.2734 72.6259 95.2734 71.2339C95.2734 69.8432 96.4015 68.7152 97.7921 68.7152C99.1841 68.7152 100.311 69.8432 100.311 71.2339Z" fill="#E5E5E5"/>
<path d="M133.061 71.2339C133.061 72.6259 131.934 73.7539 130.542 73.7539C129.151 73.7539 128.023 72.6259 128.023 71.2339C128.023 69.8432 129.151 68.7152 130.542 68.7152C131.934 68.7152 133.061 69.8432 133.061 71.2339Z" fill="#E5E5E5"/>
<path d="M165.803 71.2339C165.803 72.6259 164.676 73.7539 163.284 73.7539C161.894 73.7539 160.766 72.6259 160.766 71.2339C160.766 69.8432 161.894 68.7152 163.284 68.7152C164.676 68.7152 165.803 69.8432 165.803 71.2339Z" fill="#E5E5E5"/>
<path d="M133.061 105.59C133.061 106.979 131.934 108.107 130.542 108.107C129.151 108.107 128.023 106.979 128.023 105.59C128.023 104.198 129.151 103.07 130.542 103.07C131.934 103.07 133.061 104.198 133.061 105.59Z" fill="#E5E5E5"/>
<path d="M165.803 105.59C165.803 106.979 164.676 108.107 163.284 108.107C161.894 108.107 160.766 106.979 160.766 105.59C160.766 104.198 161.894 103.07 163.284 103.07C164.676 103.07 165.803 104.198 165.803 105.59Z" fill="#E5E5E5"/>
<path d="M113.568 253.03H86.9008V140.005C86.9008 123.434 73.4195 109.953 56.8501 109.953C40.2795 109.953 26.7995 123.434 26.7995 140.005V253.03H0.132812V140.005C0.132812 108.73 25.5755 83.2864 56.8501 83.2864C88.1248 83.2864 113.568 108.73 113.568 140.005V253.03Z" fill="#EEF2FF"/>
</svg>
