<svg width="323" height="303" viewBox="0 0 323 303" fill="none" xmlns="http://www.w3.org/2000/svg">
<path d="M180.191 212.21C180.191 261.803 139.988 302.006 90.3962 302.006C40.8029 302.006 0.601562 261.803 0.601562 212.21C0.601562 162.618 40.8029 122.415 90.3962 122.415C139.988 122.415 180.191 162.618 180.191 212.21Z" fill="#FECDD3"/>
<path d="M174.705 2.30566C174.072 2.30566 173.559 1.78965 173.559 1.15365C173.559 0.516313 174.072 0.00032568 174.705 0.00032568C175.339 0.00032568 175.852 0.516313 175.852 1.15365C175.852 1.78965 175.339 2.30566 174.705 2.30566Z" fill="#BFDBFE"/>
<path d="M174.705 11.5322C174.072 11.5322 173.559 11.0162 173.559 10.3789C173.559 9.74157 174.072 9.22559 174.705 9.22559C175.339 9.22559 175.852 9.74157 175.852 10.3789C175.852 11.0162 175.339 11.5322 174.705 11.5322Z" fill="#BFDBFE"/>
<path d="M174.705 20.7578C174.072 20.7578 173.559 20.2418 173.559 19.6045C173.559 18.9685 174.072 18.4512 174.705 18.4512C175.339 18.4512 175.852 18.9685 175.852 19.6045C175.852 20.2418 175.339 20.7578 174.705 20.7578Z" fill="#BFDBFE"/>
<path d="M174.705 29.9824C174.072 29.9824 173.559 29.4664 173.559 28.829C173.559 28.193 174.072 27.6757 174.705 27.6757C175.339 27.6757 175.852 28.193 175.852 28.829C175.852 29.4664 175.339 29.9824 174.705 29.9824Z" fill="#BFDBFE"/>
<path d="M174.705 39.208C174.072 39.208 173.559 38.692 173.559 38.056C173.559 37.4173 174.072 36.9013 174.705 36.9013C175.339 36.9013 175.852 37.4173 175.852 38.056C175.852 38.692 175.339 39.208 174.705 39.208Z" fill="#BFDBFE"/>
<path d="M174.705 48.4336C174.072 48.4336 173.559 47.9176 173.559 47.2803C173.559 46.6443 174.072 46.1283 174.705 46.1283C175.339 46.1283 175.852 46.6443 175.852 47.2803C175.852 47.9176 175.339 48.4336 174.705 48.4336Z" fill="#BFDBFE"/>
<path d="M174.705 57.6602C174.072 57.6602 173.559 57.1442 173.559 56.5068C173.559 55.8695 174.072 55.3535 174.705 55.3535C175.339 55.3535 175.852 55.8695 175.852 56.5068C175.852 57.1442 175.339 57.6602 174.705 57.6602Z" fill="#BFDBFE"/>
<path d="M174.705 66.8838C174.072 66.8838 173.559 66.3678 173.559 65.7318C173.559 65.0944 174.072 64.5785 174.705 64.5785C175.339 64.5785 175.852 65.0944 175.852 65.7318C175.852 66.3678 175.339 66.8838 174.705 66.8838Z" fill="#BFDBFE"/>
<path d="M174.705 76.1104C174.072 76.1104 173.559 75.5943 173.559 74.957C173.559 74.3196 174.072 73.8036 174.705 73.8036C175.339 73.8036 175.852 74.3196 175.852 74.957C175.852 75.5943 175.339 76.1104 174.705 76.1104Z" fill="#BFDBFE"/>
<path d="M174.705 85.3359C174.072 85.3359 173.559 84.82 173.559 84.1826C173.559 83.5453 174.072 83.0292 174.705 83.0292C175.339 83.0292 175.852 83.5453 175.852 84.1826C175.852 84.82 175.339 85.3359 174.705 85.3359Z" fill="#BFDBFE"/>
<path d="M174.705 94.5615C174.072 94.5615 173.559 94.0455 173.559 93.4082C173.559 92.7722 174.072 92.2562 174.705 92.2562C175.339 92.2562 175.852 92.7722 175.852 93.4082C175.852 94.0455 175.339 94.5615 174.705 94.5615Z" fill="#BFDBFE"/>
<path d="M174.705 103.787C174.072 103.787 173.559 103.271 173.559 102.635C173.559 101.996 174.072 101.48 174.705 101.48C175.339 101.48 175.852 101.996 175.852 102.635C175.852 103.271 175.339 103.787 174.705 103.787Z" fill="#BFDBFE"/>
<path d="M174.705 113.012C174.072 113.012 173.559 112.496 173.559 111.86C173.559 111.222 174.072 110.706 174.705 110.706C175.339 110.706 175.852 111.222 175.852 111.86C175.852 112.496 175.339 113.012 174.705 113.012Z" fill="#BFDBFE"/>
<path d="M174.705 122.238C174.072 122.238 173.559 121.722 173.559 121.084C173.559 120.448 174.072 119.932 174.705 119.932C175.339 119.932 175.852 120.448 175.852 121.084C175.852 121.722 175.339 122.238 174.705 122.238Z" fill="#BFDBFE"/>
<path d="M174.705 131.464C174.072 131.464 173.559 130.948 173.559 130.311C173.559 129.675 174.072 129.157 174.705 129.157C175.339 129.157 175.852 129.675 175.852 130.311C175.852 130.948 175.339 131.464 174.705 131.464Z" fill="#BFDBFE"/>
<path d="M174.705 140.689C174.072 140.689 173.559 140.173 173.559 139.536C173.559 138.899 174.072 138.383 174.705 138.383C175.339 138.383 175.852 138.899 175.852 139.536C175.852 140.173 175.339 140.689 174.705 140.689Z" fill="#BFDBFE"/>
<path d="M174.586 149.912C173.954 149.887 173.466 149.363 173.498 148.74C173.53 148.116 174.07 147.611 174.703 147.608C175.336 147.607 175.824 148.132 175.791 148.782C175.759 149.431 175.219 149.938 174.586 149.912Z" fill="#BFDBFE"/>
<path d="M173.618 159.075C172.996 158.959 172.567 158.367 172.662 157.751C172.756 157.135 173.342 156.707 173.968 156.795C174.596 156.883 175.024 157.477 174.926 158.119C174.827 158.762 174.242 159.19 173.618 159.075Z" fill="#BFDBFE"/>
<path d="M171.33 167.998C170.731 167.794 170.419 167.155 170.635 166.57C170.823 165.977 171.418 165.625 172.034 165.805C172.634 165.979 173.018 166.642 172.822 167.261C172.598 167.871 171.93 168.201 171.33 167.998Z" fill="#BFDBFE"/>
<path d="M167.761 176.493C167.195 176.206 166.958 175.518 167.23 174.957C167.501 174.396 168.188 174.154 168.764 174.417C169.34 174.68 169.578 175.368 169.295 175.953C169.012 176.538 168.325 176.781 167.761 176.493Z" fill="#BFDBFE"/>
<path d="M163.06 184.416C162.536 184.046 162.441 183.362 162.784 182.841C163.108 182.309 163.803 182.154 164.336 182.497C164.868 182.838 165.025 183.566 164.687 184.121C164.331 184.664 163.572 184.776 163.06 184.416Z" fill="#BFDBFE"/>
<path d="M157.241 191.56C156.78 191.127 156.745 190.401 157.165 189.94C157.585 189.479 158.313 189.44 158.793 189.855C159.272 190.268 159.306 190.993 158.869 191.475C158.432 191.956 157.702 191.995 157.241 191.56Z" fill="#BFDBFE"/>
<path d="M150.522 197.863C150.115 197.356 150.234 196.695 150.686 196.263C151.146 195.843 151.858 195.89 152.274 196.367C152.69 196.844 152.638 197.586 152.157 198.023C151.685 198.471 150.907 198.344 150.522 197.863Z" fill="#BFDBFE"/>
<path d="M142.937 203.095C142.614 202.55 142.785 201.844 143.317 201.52C143.85 201.196 144.561 201.364 144.906 201.895C145.25 202.426 145.079 203.132 144.525 203.47C143.97 203.808 143.258 203.64 142.937 203.095Z" fill="#BFDBFE"/>
<path d="M134.727 207.277C134.485 206.692 134.772 206.06 135.325 205.768C135.885 205.497 136.556 205.742 136.823 206.317C137.088 206.892 136.829 207.588 136.244 207.869C135.665 208.172 134.968 207.864 134.727 207.277Z" fill="#BFDBFE"/>
<path d="M125.965 210.141C125.811 209.528 126.175 208.902 126.779 208.746C127.381 208.59 128.019 208.956 128.199 209.564C128.38 210.17 128.016 210.794 127.385 210.958C126.756 211.121 126.12 210.754 125.965 210.141Z" fill="#BFDBFE"/>
<path d="M116.909 211.839C116.843 211.208 117.291 210.62 117.907 210.526C118.523 210.43 119.097 210.862 119.187 211.488C119.279 212.115 118.833 212.702 118.19 212.802C117.547 212.899 116.973 212.468 116.909 211.839Z" fill="#BFDBFE"/>
<path d="M107.695 212.21C107.695 211.576 108.213 211.063 108.849 211.063C109.486 211.063 110.002 211.576 110.002 212.21C110.002 212.843 109.486 213.356 108.849 213.356C108.213 213.356 107.695 212.843 107.695 212.21Z" fill="#BFDBFE"/>
<path d="M98.4688 212.21C98.4688 211.576 98.9847 211.063 99.6221 211.063C100.259 211.063 100.775 211.576 100.775 212.21C100.775 212.843 100.259 213.356 99.6221 213.356C98.9847 213.356 98.4688 212.843 98.4688 212.21Z" fill="#BFDBFE"/>
<path d="M89.2422 212.21C89.2422 211.576 89.7582 211.063 90.3955 211.063C91.0328 211.063 91.5488 211.576 91.5488 212.21C91.5488 212.843 91.0328 213.356 90.3955 213.356C89.7582 213.356 89.2422 212.843 89.2422 212.21Z" fill="#BFDBFE"/>
<path d="M80.0156 212.21C80.0156 211.576 80.5316 211.063 81.1689 211.063C81.8049 211.063 82.3223 211.576 82.3223 212.21C82.3223 212.843 81.8049 213.356 81.1689 213.356C80.5316 213.356 80.0156 212.843 80.0156 212.21Z" fill="#BFDBFE"/>
<path d="M70.793 212.21C70.793 211.576 71.309 211.063 71.945 211.063C72.5823 211.063 73.0997 211.576 73.0997 212.21C73.0997 212.843 72.5823 213.356 71.945 213.356C71.309 213.356 70.793 212.843 70.793 212.21Z" fill="#BFDBFE"/>
<path d="M61.6054 211.488C61.6974 210.862 62.2708 210.43 62.8868 210.526C63.5028 210.62 63.9495 211.208 63.8855 211.839C63.8201 212.468 63.2467 212.899 62.6041 212.802C61.9614 212.702 61.5148 212.115 61.6054 211.488Z" fill="#BFDBFE"/>
<path d="M52.5935 209.564C52.7735 208.956 53.4095 208.59 54.0135 208.746C54.6175 208.902 54.9814 209.528 54.8254 210.141C54.6708 210.754 54.0361 211.121 53.4068 210.958C52.7761 210.794 52.4121 210.17 52.5935 209.564Z" fill="#BFDBFE"/>
<path d="M43.9714 206.317C44.2381 205.742 44.9074 205.497 45.4687 205.768C46.0221 206.06 46.3074 206.692 46.0661 207.277C45.8247 207.864 45.1288 208.172 44.5501 207.869C43.9648 207.588 43.7061 206.892 43.9714 206.317Z" fill="#BFDBFE"/>
<path d="M35.8889 201.895C36.2343 201.364 36.9449 201.196 37.4782 201.52C38.0102 201.844 38.1809 202.55 37.8583 203.095C37.5369 203.64 36.8249 203.808 36.2702 203.47C35.7142 203.132 35.5449 202.426 35.8889 201.895Z" fill="#BFDBFE"/>
<path d="M28.5185 196.367C28.9359 195.89 29.6465 195.843 30.1078 196.263C30.5598 196.695 30.6785 197.356 30.2718 197.863C29.8865 198.344 29.1092 198.471 28.6372 198.023C28.1559 197.586 28.1025 196.844 28.5185 196.367Z" fill="#BFDBFE"/>
<path d="M22.0004 189.855C22.4791 189.44 23.2084 189.479 23.6284 189.94C24.0471 190.401 24.0138 191.127 23.5511 191.56C23.0898 191.995 22.3618 191.956 21.9244 191.475C21.4871 190.993 21.5204 190.268 22.0004 189.855Z" fill="#BFDBFE"/>
<path d="M16.4563 182.497C16.9897 182.154 17.6843 182.309 18.0083 182.841C18.3496 183.362 18.2563 184.046 17.7309 184.416C17.2203 184.776 16.4616 184.664 16.1043 184.121C15.7656 183.566 15.923 182.838 16.4563 182.497Z" fill="#BFDBFE"/>
<path d="M12.0248 174.417C12.6008 174.154 13.2889 174.396 13.5595 174.957C13.8302 175.518 13.5929 176.206 13.0289 176.493C12.4635 176.781 11.7768 176.538 11.4942 175.953C11.2115 175.368 11.4488 174.68 12.0248 174.417Z" fill="#BFDBFE"/>
<path d="M8.76278 165.805C9.37745 165.625 9.97341 165.977 10.1614 166.57C10.3774 167.155 10.0654 167.794 9.46545 167.998C8.86545 168.201 8.19746 167.871 7.97346 167.261C7.77746 166.642 8.16145 165.979 8.76278 165.805Z" fill="#BFDBFE"/>
<path d="M6.8256 156.795C7.4536 156.707 8.03898 157.135 8.13231 157.751C8.22831 158.367 7.79899 158.959 7.17632 159.075C6.55365 159.19 5.96828 158.762 5.86961 158.119C5.77095 157.477 6.19894 156.883 6.8256 156.795Z" fill="#BFDBFE"/>
<path d="M6.08963 147.608C6.72163 147.611 7.26157 148.116 7.2949 148.74C7.32557 149.363 6.83895 149.887 6.20695 149.912C5.57362 149.938 5.03361 149.431 5.00161 148.782C4.96828 148.132 5.4563 147.607 6.08963 147.608Z" fill="#BFDBFE"/>
<path d="M6.08809 138.383C6.72142 138.383 7.23477 138.899 7.23477 139.536C7.23477 140.173 6.72142 140.689 6.08809 140.689C5.45475 140.689 4.94141 140.173 4.94141 139.536C4.94141 138.899 5.45475 138.383 6.08809 138.383Z" fill="#BFDBFE"/>
<path d="M6.08809 129.157C6.72142 129.157 7.23477 129.675 7.23477 130.311C7.23477 130.948 6.72142 131.464 6.08809 131.464C5.45475 131.464 4.94141 130.948 4.94141 130.311C4.94141 129.675 5.45475 129.157 6.08809 129.157Z" fill="#BFDBFE"/>
<path d="M6.08809 119.932C6.72142 119.932 7.23477 120.448 7.23477 121.084C7.23477 121.722 6.72142 122.238 6.08809 122.238C5.45475 122.238 4.94141 121.722 4.94141 121.084C4.94141 120.448 5.45475 119.932 6.08809 119.932Z" fill="#BFDBFE"/>
<path d="M6.08809 110.706C6.72142 110.706 7.23477 111.222 7.23477 111.86C7.23477 112.496 6.72142 113.012 6.08809 113.012C5.45475 113.012 4.94141 112.496 4.94141 111.86C4.94141 111.222 5.45475 110.706 6.08809 110.706Z" fill="#BFDBFE"/>
<path d="M6.08809 101.48C6.72142 101.48 7.23477 101.996 7.23477 102.635C7.23477 103.271 6.72142 103.787 6.08809 103.787C5.45475 103.787 4.94141 103.271 4.94141 102.635C4.94141 101.996 5.45475 101.48 6.08809 101.48Z" fill="#BFDBFE"/>
<path d="M6.08809 92.2562C6.72142 92.2562 7.23477 92.7722 7.23477 93.4082C7.23477 94.0455 6.72142 94.5615 6.08809 94.5615C5.45475 94.5615 4.94141 94.0455 4.94141 93.4082C4.94141 92.7722 5.45475 92.2562 6.08809 92.2562Z" fill="#BFDBFE"/>
<path d="M6.08809 83.0292C6.72142 83.0292 7.23477 83.5453 7.23477 84.1826C7.23477 84.82 6.72142 85.3359 6.08809 85.3359C5.45475 85.3359 4.94141 84.82 4.94141 84.1826C4.94141 83.5453 5.45475 83.0292 6.08809 83.0292Z" fill="#BFDBFE"/>
<path d="M6.08809 73.8036C6.72142 73.8036 7.23477 74.3196 7.23477 74.957C7.23477 75.5943 6.72142 76.1104 6.08809 76.1104C5.45475 76.1104 4.94141 75.5943 4.94141 74.957C4.94141 74.3196 5.45475 73.8036 6.08809 73.8036Z" fill="#BFDBFE"/>
<path d="M6.08809 64.5785C6.72142 64.5785 7.23477 65.0944 7.23477 65.7318C7.23477 66.3678 6.72142 66.8838 6.08809 66.8838C5.45475 66.8838 4.94141 66.3678 4.94141 65.7318C4.94141 65.0944 5.45475 64.5785 6.08809 64.5785Z" fill="#BFDBFE"/>
<path d="M6.08809 55.3535C6.72142 55.3535 7.23477 55.8695 7.23477 56.5068C7.23477 57.1442 6.72142 57.6602 6.08809 57.6602C5.45475 57.6602 4.94141 57.1442 4.94141 56.5068C4.94141 55.8695 5.45475 55.3535 6.08809 55.3535Z" fill="#BFDBFE"/>
<path d="M6.08809 46.1283C6.72142 46.1283 7.23477 46.6443 7.23477 47.2803C7.23477 47.9176 6.72142 48.4336 6.08809 48.4336C5.45475 48.4336 4.94141 47.9176 4.94141 47.2803C4.94141 46.6443 5.45475 46.1283 6.08809 46.1283Z" fill="#BFDBFE"/>
<path d="M6.08809 36.9013C6.72142 36.9013 7.23477 37.4173 7.23477 38.056C7.23477 38.692 6.72142 39.208 6.08809 39.208C5.45475 39.208 4.94141 38.692 4.94141 38.056C4.94141 37.4173 5.45475 36.9013 6.08809 36.9013Z" fill="#BFDBFE"/>
<path d="M6.08809 27.6757C6.72142 27.6757 7.23477 28.193 7.23477 28.829C7.23477 29.4664 6.72142 29.9824 6.08809 29.9824C5.45475 29.9824 4.94141 29.4664 4.94141 28.829C4.94141 28.193 5.45475 27.6757 6.08809 27.6757Z" fill="#BFDBFE"/>
<path d="M6.08809 18.4512C6.72142 18.4512 7.23477 18.9685 7.23477 19.6045C7.23477 20.2418 6.72142 20.7578 6.08809 20.7578C5.45475 20.7578 4.94141 20.2418 4.94141 19.6045C4.94141 18.9685 5.45475 18.4512 6.08809 18.4512Z" fill="#BFDBFE"/>
<path d="M6.08809 9.22559C6.72142 9.22559 7.23477 9.74157 7.23477 10.3789C7.23477 11.0162 6.72142 11.5322 6.08809 11.5322C5.45475 11.5322 4.94141 11.0162 4.94141 10.3789C4.94141 9.74157 5.45475 9.22559 6.08809 9.22559Z" fill="#BFDBFE"/>
<path d="M6.08809 0.00032568C6.72142 0.00032568 7.23477 0.516313 7.23477 1.15365C7.23477 1.78965 6.72142 2.30566 6.08809 2.30566C5.45475 2.30566 4.94141 1.78965 4.94141 1.15365C4.94141 0.516313 5.45475 0.00032568 6.08809 0.00032568Z" fill="#BFDBFE"/>
<path d="M242.338 126.103L234.349 131.135L226.359 136.168V116.037L234.349 121.069L242.338 126.103Z" fill="#E5E5E5"/>
<path d="M268.944 126.103L260.954 131.135L252.965 136.168V116.037L260.954 121.069L268.944 126.103Z" fill="#E5E5E5"/>
<path d="M295.55 126.103L287.56 131.135L279.57 136.168V116.037L287.56 121.069L295.55 126.103Z" fill="#E5E5E5"/>
<path d="M322.151 126.103L314.161 131.135L306.172 136.168V116.037L314.161 121.069L322.151 126.103Z" fill="#E5E5E5"/>
</svg>
