<svg width="310" height="433" viewBox="0 0 310 433" fill="none" xmlns="http://www.w3.org/2000/svg">
<path d="M169.602 253C219.307 253 259.602 293.294 259.602 343C259.602 392.705 219.307 433 169.602 433C119.895 433 79.6005 392.705 79.6005 343C79.6005 293.294 119.895 253 169.602 253Z" fill="#E5E5E5"/>
<path d="M62.3006 209.075C85.5659 207.695 105.547 225.436 106.929 248.702C108.309 271.969 90.5672 291.949 67.3019 293.33C44.0352 294.711 24.0539 276.969 22.6739 253.703C21.2926 230.436 39.0352 210.456 62.3006 209.075Z" fill="#FECDD3"/>
<path d="M272.235 391.523C273.626 391.523 274.754 392.651 274.754 394.042C274.754 395.433 273.626 396.561 272.235 396.561C270.843 396.561 269.717 395.433 269.717 394.042C269.717 392.651 270.843 391.523 272.235 391.523Z" fill="#E5E5E5"/>
<path d="M271.919 358.779C273.31 358.779 274.438 359.907 274.438 361.298C274.438 362.689 273.31 363.816 271.919 363.816C270.527 363.816 269.4 362.689 269.4 361.298C269.4 359.907 270.527 358.779 271.919 358.779Z" fill="#E5E5E5"/>
<path d="M306.587 391.19C307.977 391.19 309.105 392.318 309.105 393.709C309.105 395.1 307.977 396.228 306.587 396.228C305.195 396.228 304.068 395.1 304.068 393.709C304.068 392.318 305.195 391.19 306.587 391.19Z" fill="#E5E5E5"/>
<path d="M306.27 358.445C307.661 358.445 308.789 359.573 308.789 360.964C308.789 362.355 307.661 363.482 306.27 363.482C304.878 363.482 303.752 362.355 303.752 360.964C303.752 359.573 304.878 358.445 306.27 358.445Z" fill="#E5E5E5"/>
<path d="M5.77819 98.6947C7.16886 98.6947 8.29688 99.8227 8.29688 101.213C8.29688 102.605 7.16886 103.733 5.77819 103.733C4.38752 103.733 3.25957 102.605 3.25957 101.213C3.25957 99.8227 4.38752 98.6947 5.77819 98.6947Z" fill="#E5E5E5"/>
<path d="M5.45788 65.9496C6.84854 65.9496 7.97656 67.0776 7.97656 68.4683C7.97656 69.8603 6.84854 70.9883 5.45788 70.9883C4.06721 70.9883 2.93926 69.8603 2.93926 68.4683C2.93926 67.0776 4.06721 65.9496 5.45788 65.9496Z" fill="#E5E5E5"/>
<path d="M5.14147 33.2068C6.53214 33.2068 7.66016 34.3348 7.66016 35.7255C7.66016 37.1162 6.53214 38.2441 5.14147 38.2441C3.7508 38.2441 2.62285 37.1162 2.62285 35.7255C2.62285 34.3348 3.7508 33.2068 5.14147 33.2068Z" fill="#E5E5E5"/>
<path d="M4.82507 0.461686C6.21573 0.461686 7.34375 1.58834 7.34375 2.98034C7.34375 4.37101 6.21573 5.49902 4.82507 5.49902C3.4344 5.49902 2.30645 4.37101 2.30645 2.98034C2.30645 1.58834 3.4344 0.461686 4.82507 0.461686Z" fill="#E5E5E5"/>
<path d="M13.3828 188.123L6.69082 194.816L-0.00117302 188.123L6.69082 181.431L13.3828 188.123Z" fill="#E5E5E5"/>
<path d="M37.7695 187.887L31.0775 194.58L24.3855 187.887L31.0775 181.195L37.7695 187.887Z" fill="#E5E5E5"/>
<path d="M62.1562 187.649L55.4642 194.343L48.7723 187.649L55.4642 180.957L62.1562 187.649Z" fill="#E5E5E5"/>
</svg>
