<svg width="30" height="30" viewBox="0 0 30 30" fill="none" xmlns="http://www.w3.org/2000/svg">
<path d="M21.2895 -5.72205e-06H8.7105C3.89972 -5.72205e-06 0 3.89972 0 8.7105V21.2895C0 26.1003 3.89972 30 8.7105 30H21.2895C26.1003 30 30 26.1003 30 21.2895V8.7105C30 3.89972 26.1003 -5.72205e-06 21.2895 -5.72205e-06Z" fill="#747BA7"/>
<path d="M6.64062 22.9375H10.1895V11.7449H6.64062V22.9375Z" fill="white"/>
<path d="M12.6973 11.4172H16.4829L16.2462 12.9226H16.2862C17.0884 12.05 17.8801 11.4172 19.2336 11.4172C21.1182 11.4172 23.7449 12.4428 23.7449 15.5625V22.937H20.196V16.6097C20.196 15.4972 19.4944 14.4283 18.3514 14.4283C17.2886 14.4283 16.2462 15.4972 16.2462 16.6097V22.937H12.6973V11.4172Z" fill="white"/>
<path d="M10.3206 8.96812C10.3206 10.0205 9.4676 10.8735 8.41518 10.8735C7.36276 10.8735 6.50977 10.0205 6.50977 8.96812C6.50977 7.9157 7.36276 7.06271 8.41518 7.06271C9.4676 7.06271 10.3206 7.9157 10.3206 8.96812Z" fill="white"/>
</svg>
